<?xml version="1.0" encoding="UTF-8" standalone="no"?>
<!-- Created with Inkscape (http://www.inkscape.org/) -->

<svg
   xmlns:dc="http://purl.org/dc/elements/1.1/"
   xmlns:cc="http://creativecommons.org/ns#"
   xmlns:rdf="http://www.w3.org/1999/02/22-rdf-syntax-ns#"
   xmlns:svg="http://www.w3.org/2000/svg"
   xmlns="http://www.w3.org/2000/svg"
   xmlns:sodipodi="http://sodipodi.sourceforge.net/DTD/sodipodi-0.dtd"
   xmlns:inkscape="http://www.inkscape.org/namespaces/inkscape"
   width="561.31372"
   height="399.20041"
   id="svg3953"
   version="1.1"
   inkscape:version="0.48.2 r9819"
   sodipodi:docname="consumer-supplier.svg">
  <defs
     id="defs3955" />
  <sodipodi:namedview
     inkscape:document-units="px"
     pagecolor="#ffffff"
     bordercolor="#666666"
     borderopacity="1.0"
     inkscape:pageopacity="0.0"
     inkscape:pageshadow="2"
     inkscape:zoom="1"
     inkscape:cx="406.19131"
     inkscape:cy="117.92612"
     inkscape:current-layer="layer1"
     id="namedview3957"
     showgrid="true"
     units="px"
     inkscape:window-width="1268"
     inkscape:window-height="774"
     inkscape:window-x="2365"
     inkscape:window-y="343"
     inkscape:window-maximized="0"
     inkscape:snap-grids="false"
     fit-margin-top="0"
     fit-margin-left="0"
     fit-margin-right="0"
     fit-margin-bottom="0">
    <inkscape:grid
       type="xygrid"
       id="grid3962"
       empspacing="5"
       visible="true"
       enabled="true"
       snapvisiblegridlinesonly="true"
       spacingx="10px"
       spacingy="10px" />
  </sodipodi:namedview>
  <metadata
     id="metadata3959">
    <rdf:RDF>
      <cc:Work
         rdf:about="">
        <dc:format>image/svg+xml</dc:format>
        <dc:type
           rdf:resource="http://purl.org/dc/dcmitype/StillImage" />
        <dc:title></dc:title>
      </cc:Work>
    </rdf:RDF>
  </metadata>
  <g
     inkscape:label="Layer 1"
     inkscape:groupmode="layer"
     id="layer1"
     transform="translate(-194.45592,-292.47989)">
    <path
       style="color:#000000;fill:#e5d5ff;fill-opacity:1;fill-rule:nonzero;stroke:#000000;stroke-width:1px;stroke-linecap:butt;stroke-linejoin:miter;stroke-miterlimit:4;stroke-opacity:1;stroke-dasharray:none;stroke-dashoffset:0;marker:none;visibility:visible;display:inline;overflow:visible;enable-background:accumulate"
       d="m 200,394.09448 c 2.49542,-16.11684 -0.0237,-32.46982 1.11057,-48.68124 1.08382,-11.68163 -5.94455,-22.35155 -3.79731,-33.96911 1.03195,-8.6344 1.4408,-18.90676 12.80578,-15.34392 15.18081,-0.4282 30.50164,0.7687 45.59273,-0.54941 14.77071,-2.289 29.82536,-0.83207 44.64226,-2.57091 13.24601,0.32492 26.58424,-0.51358 39.60735,2.43967 11.8908,-2.40811 17.29031,8.97995 16.6306,19.27546 2.77399,17.85402 1.95292,36.22087 -3.03439,53.62116 -4.24507,8.41236 2.36106,25.08174 -10.27335,26.58737 -11.90617,0.0634 -23.75828,-0.1583 -35.58293,-1.96951 -17.31501,-0.76534 -34.30998,4.08117 -51.59631,4.70702 -12.13943,0.0385 -24.56736,1.71888 -36.53523,-0.5082 -5.82476,-2.22306 -21.31893,0.96122 -17.56466,-9.18804 0.4536,-1.56189 -0.6865,-3.143 -2.00511,-3.85034"
       id="path3001"
       inkscape:connector-curvature="0" />
    <path
       style="color:#000000;fill:#e5d5ff;fill-opacity:1;fill-rule:nonzero;stroke:#000000;stroke-width:1px;stroke-linecap:butt;stroke-linejoin:miter;stroke-miterlimit:4;stroke-opacity:1;stroke-dasharray:none;stroke-dashoffset:0;marker:none;visibility:visible;display:inline;overflow:visible;enable-background:accumulate"
       d="m 200,544.09448 c -0.83341,-24.61915 -1.87768,-49.40198 2.7503,-73.5321 -6.67068,-14.88101 -0.20142,-32.11896 18.76213,-24.48277 36.65562,-0.39054 73.35036,0.6579 109.99147,-0.35029 18.69517,-8.24798 23.35023,11.50622 15.68032,24.40425 -0.3124,19.57394 4.25395,38.90593 1.62212,58.54304 0.59764,29.4081 -35.47932,8.93552 -52.70013,16.45173 -28.68437,4.83866 -57.60008,-1.18497 -86.12103,-2.68829 -6.07925,3.00532 -11.30292,-2.82709 -9.98518,-8.34553"
       id="path3003"
       inkscape:connector-curvature="0" />
    <path
       style="color:#000000;fill:#e5d5ff;fill-opacity:1;fill-rule:nonzero;stroke:#000000;stroke-width:1px;stroke-linecap:butt;stroke-linejoin:miter;stroke-miterlimit:4;stroke-opacity:1;stroke-dasharray:none;stroke-dashoffset:0;marker:none;visibility:visible;display:inline;overflow:visible;enable-background:accumulate"
       d="m 200,594.09448 c 11.35021,4.47282 23.8066,0.72721 35.63432,2.00057 22.9629,0.40564 46.06797,-0.82031 68.94024,0.62359 14.36894,2.49644 28.68418,-2.43152 42.96839,-1.45588 7.5439,9.2349 -3.02987,24.40296 -0.54685,36.0075 2.58176,12.11073 2.1444,24.55811 3.19411,36.90287 -0.21798,11.65806 -0.20937,-1.61726 -0.19024,-6.02037 -0.18787,-6.20461 0.24342,15.41846 -0.0567,19.58805 1.68175,8.33291 -8.72341,0.58653 -13.25611,7.68897 -17.55502,0.64539 -35.80447,1.9483 -53.39834,-1.4756 -18.92052,-1.50407 -38.21067,-1.91991 -56.79422,2.45917 -7.28813,0.81843 -19.43777,1.57174 -19.02244,-1.05505 -16.79112,4.48465 -4.75267,-20.24233 -8.64088,-29.386 -0.96562,-16.45907 -5.33268,-33.00276 -3.37726,-49.47596 0.87186,-5.99002 3.92707,-10.55265 4.54597,-16.40186 z"
       id="path3005"
       inkscape:connector-curvature="0" />
    <path
       style="fill:#e6e6e6;stroke:#000000;stroke-width:1px;stroke-linecap:butt;stroke-linejoin:miter;stroke-opacity:1"
       d="m 750,444.09448 c 4.15856,13.87362 6.0076,28.22698 4.99997,42.68977 0.14227,17.22002 0.78746,34.58483 -4.07701,51.28172 -9.32936,12.07504 -29.81614,2.99364 -43.65756,6.43256 -13.2044,1.37752 -26.63681,0.56015 -39.87393,-0.16566 -19.29013,-3.52936 -38.90806,-3.99778 -58.46361,-2.81075 -15.50739,9.79523 -7.03316,-15.8875 -10.78132,-24.11724 -1.51924,-18.45441 1.26899,-36.8426 2.92103,-55.11908 -1.72902,-10.45359 -2.21911,-20.31122 11.70076,-16.08588 26.70305,-0.51148 53.20982,-2.89229 79.88518,-3.38617 16.01329,-1.59044 32.23991,-0.30043 48.34653,-0.71931 3.83872,-5.85854 12.10288,6.64927 4.67751,-0.57713 2.43419,-2.53528 3.01848,-4.57304 4.32249,-7.42287"
       id="path3007"
       inkscape:connector-curvature="0" />
    <path
       style="fill:#e6e6e6;stroke:#000000;stroke-width:1px;stroke-linecap:butt;stroke-linejoin:miter;stroke-opacity:1"
       d="m 542.115,473.29179 c -5.81712,2.23904 -9.53905,7.27156 -13.94093,11.39555 -0.66285,4.1545 -1.85707,7.01644 -3.58853,11.66365 -1.05228,0.84121 -0.2229,8.77144 -0.70636,5.81927 3.55406,-2.14865 0.005,6.51319 3.9789,6.21477 3.08762,4.85084 5.69544,6.84942 10.08748,10.02708 2.41149,0.61427 7.48501,2.60452 11.82131,1.87221 3.08043,-0.59012 5.33954,1.49908 9.71793,1.09117 -2.28984,-1.47482 4.96352,-0.96328 5.62025,-3.76087 2.94489,-0.69009 1.30371,-3.05118 4.89495,-3.52014 1.76285,-4.08238 2.98698,-7.76265 3.56107,-11.11771 1.17774,-3.83386 1.00898,-8.43958 -1.18795,-12.13579 -1.74966,-4.28737 -2.29929,-9.10252 -4.55204,-11.47929 -1.49992,-3.36016 1.2459,1.21661 -0.27427,-2.17475 -2.22067,-3.15108 -6.84364,-4.41069 -8.99375,-5.61183 -5.48075,-2.03677 -11.17264,0.11426 -16.43806,1.71668 z"
       id="path3009"
       inkscape:connector-curvature="0" />
    <path
       style="fill:none;stroke:#000000;stroke-width:0.9999997px;stroke-linecap:butt;stroke-linejoin:miter;stroke-opacity:1"
       d="m 573.63569,494.09448 c 3.20409,3.83599 6.82878,1.12005 10.21174,2.20516 2.36263,-1.07026 4.61071,-3.41419 7.02004,-4.00545 1.51716,-1.24193 6.9439,1.43453 7.22152,-1.33506"
       id="path3031"
       inkscape:connector-curvature="0"
       sodipodi:nodetypes="cccc" />
    <path
       id="path3063"
       style="color:#000000;fill:none;stroke:#000000;stroke-width:3;stroke-linecap:butt;stroke-linejoin:miter;stroke-miterlimit:4;stroke-opacity:1;stroke-dasharray:none;stroke-dashoffset:0;marker:none;visibility:visible;display:inline;overflow:visible;enable-background:accumulate"
       d="m 490,525.09448 c 6.55023,-0.0121 13.10056,0.0246 19.65072,-0.0193 4.72457,2.42056 4.37759,8.15502 4.62981,12.63021 0.73485,3.36088 2.10411,8.86861 2.72017,10.87887 -0.0215,-0.82989 0.0236,-1.65996 -8.9e-4,-2.48978 m -23.99981,1 c 7.03232,-5.21606 12.98128,-11.68853 19,-18 m -50,37 c 4.43444,-1.45711 4.894,-7.16115 9,-9 m -53,46 c 8.63259,-7.31754 17.07775,-15.00132 24,-24 m -55,43 c 4.71831,-1.01138 6.73677,-6.19431 11,-8 m -44,32 c 2.70482,-3.6462 7.56199,-4.32834 11,-7"
       inkscape:connector-curvature="0" />
    <path
       id="path3065"
       style="color:#000000;fill:none;stroke:#000000;stroke-width:3;stroke-linecap:butt;stroke-linejoin:miter;stroke-miterlimit:4;stroke-opacity:1;stroke-dasharray:none;stroke-dashoffset:0;marker:none;visibility:visible;display:inline;overflow:visible;enable-background:accumulate"
       d="m 455,473.09448 c 5.20745,2.63781 8.16739,7.96043 10.77253,12.93269 0.55497,1.50238 2.00105,2.33867 2.81301,3.68509 1.85219,2.54436 2.6233,6.2655 0.72473,8.98881 -2.19996,3.73102 -3.75325,7.92716 -6.9205,11.00497 -2.02036,2.18538 -4.22939,4.19564 -6.13246,6.48891 -2.2193,0.51127 0.74107,-2.50313 0.74269,-3.10047 m -3,-19 c 6.33333,0 12.66667,0 19,0 m -55,-1 c 3.52461,1.25098 7.32625,1.00768 11,1 m -66,0 c 7,0 14,0 21,0"
       inkscape:connector-curvature="0" />
    <path
       id="path3067"
       style="fill:none;stroke:#000000;stroke-width:3;stroke-linecap:butt;stroke-linejoin:miter;stroke-miterlimit:4;stroke-opacity:1;stroke-dasharray:none"
       d="m 532,433.09448 c -2.46184,7.04049 -3.08034,14.65519 -6.70528,21.30656 -2.21171,5.89227 -4.02307,13.46493 -11.64017,13.94475 -6.21841,2.12693 -12.64951,1.29757 -19.02793,2.32626 -3.05698,0.12211 -6.05162,2.53273 -1.05484,1.25415 L 494,472.09436 m 11,-22.99988 c 4.15568,7.25273 13.34281,10.8357 17,18 m -61,-55 c 6.5356,10.57536 17.67806,17.15316 27,25 m -80,-65 c 14.06488,8.26359 26.80548,18.7377 40.73021,26.99889 L 448,399.09448 m -79,-61 c 7.47432,8.18662 15.25676,16.15258 24,23"
       inkscape:connector-curvature="0" />
    <g
       style="font-size:28px;font-style:normal;font-variant:normal;font-weight:500;font-stretch:normal;text-align:start;line-height:125%;letter-spacing:0px;word-spacing:0px;writing-mode:lr-tb;text-anchor:start;fill:#000000;fill-opacity:1;stroke:none;font-family:Inconsolata;-inkscape-font-specification:Inconsolata Medium"
       id="text3919">
      <path
         d="m 637.096,566.00648 c -1.176,-1.288 -2.884,-1.988 -4.788,-1.988 -2.968,0 -4.9,1.652 -4.9,3.556 0,2.24 2.408,3.052 3.108,3.304 1.092,0.392 2.492,0.728 3.444,1.176 1.064,0.504 1.26,1.176 1.26,1.624 0,1.204 -1.456,2.016 -3.276,2.016 -2.184,0 -3.584,-1.316 -4.004,-1.764 -0.084,-0.112 -0.084,-0.196 -0.084,-0.308 0,-0.028 0.028,-0.196 -0.112,-0.252 l -1.176,1.988 c 1.512,1.4 3.472,2.044 5.404,2.044 3.5,0 5.32,-2.072 5.32,-4.004 0,-0.868 -0.364,-2.044 -1.876,-2.884 -1.428,-0.812 -3.5,-1.092 -4.704,-1.68 -1.036,-0.504 -1.26,-1.12 -1.26,-1.568 0,-1.008 1.26,-1.736 2.688,-1.736 1.848,0 3.08,1.12 3.556,1.764 0.084,0.084 0.056,0.168 0.056,0.252 0,0.168 0.112,0.224 0.168,0.224 l 1.176,-1.764"
         style=""
         id="path3947" />
      <path
         d="m 640.736,564.32648 0,7.14 c 0,1.092 0,2.212 0.504,3.36 0.728,1.68 2.296,2.604 3.976,2.604 1.596,0 3.108,-0.868 3.948,-2.268 l -0.028,0.952 c 0,0.336 0,0.672 0.056,0.98 l 2.128,0 c -0.14,-0.364 -0.168,-0.784 -0.168,-1.148 l 0,-11.62 -2.016,0 0,7.028 c 0,0.98 -0.084,1.736 -0.504,2.52 -0.588,1.092 -1.736,1.904 -2.968,1.904 -0.98,0 -1.932,-0.56 -2.436,-1.568 -0.448,-0.896 -0.448,-1.904 -0.448,-2.744 l 0,-7.14 -2.044,0"
         style=""
         id="path3949" />
      <path
         d="m 654.652,564.32648 0.028,17.444 2.044,0 0,-6.356 c 0.868,1.26 2.296,2.044 3.836,2.044 2.632,0 5.376,-2.212 5.376,-6.888 0,-4.50799 -2.66,-6.524 -5.18,-6.524 -1.652,0 -3.192,0.84 -4.06,2.24 l 0,-1.96 -2.044,0 m 5.348,1.428 c 1.12,0 3.836,0.58801 3.836,5.236 0,4.032 -2.632,4.676 -3.836,4.676 -1.204,0 -2.436,-0.616 -2.94,-1.764 -0.364,-0.868 -0.364,-1.932 -0.364,-3.78 0,-1.064 0.056,-1.848 0.336,-2.52 0.504,-1.148 1.68,-1.848 2.968,-1.848"
         style=""
         id="path3951" />
      <path
         d="m 668.652,564.32648 0.028,17.444 2.044,0 0,-6.356 c 0.868,1.26 2.296,2.044 3.836,2.044 2.632,0 5.376,-2.212 5.376,-6.888 0,-4.50799 -2.66,-6.524 -5.18,-6.524 -1.652,0 -3.192,0.84 -4.06,2.24 l 0,-1.96 -2.044,0 m 5.348,1.428 c 1.12,0 3.836,0.58801 3.836,5.236 0,4.032 -2.632,4.676 -3.836,4.676 -1.204,0 -2.436,-0.616 -2.94,-1.764 -0.364,-0.868 -0.364,-1.932 -0.364,-3.78 0,-1.064 0.056,-1.848 0.336,-2.52 0.504,-1.148 1.68,-1.848 2.968,-1.848"
         style=""
         id="path3953" />
      <path
         d="m 683.352,558.50248 0,1.624 3.64,0 0,15.372 -3.808,0 0,1.596 9.604,0 0,-1.596 -3.78,0 0,-16.996 -5.656,0"
         style=""
         id="path3955" />
      <path
         d="m 697.968,564.29848 0,1.652 3.08,0 0,9.548 -3.248,0 0,1.596 8.288,0 0,-1.596 -2.996,0 0,-11.2 -5.124,0 m 4.144,-5.544 c -0.812,0 -1.456,0.644 -1.456,1.428 0,0.784 0.644,1.428 1.456,1.428 0.812,0 1.456,-0.644 1.456,-1.428 0,-0.784 -0.644,-1.428 -1.456,-1.428"
         style=""
         id="path3957" />
      <path
         d="m 716.224,564.01848 c -3.052,0 -5.88,2.18401 -5.88,6.832 0,4.284 2.66,6.552 6.132,6.552 1.848,0 3.5,-0.672 4.592,-1.988 l -1.12,-1.092 c -0.812,0.952 -2.044,1.456 -3.304,1.456 -1.708,0 -4.2,-0.952 -4.34,-4.788 l 9.072,0 c 0.084,-0.868 0.056,-1.708 -0.084,-2.436 -0.588,-3.44399 -2.968,-4.536 -5.068,-4.536 m -3.864,5.432 c 0.42,-3.02399 2.352,-3.892 3.724,-3.892 2.072,0 3.556,1.82 3.304,3.892 l -7.028,0"
         style=""
         id="path3959" />
      <path
         d="m 725.772,564.32648 0,12.796 2.016,0 0,-6.216 c 0,-0.784 0.028,-1.624 0.896,-2.996 1.176,-1.848 2.688,-2.156 3.612,-2.156 1.064,0 1.736,0.504 2.1,0.952 0.168,0.224 0.252,0.448 0.476,0.644 l 0.952,-1.932 c -0.812,-0.84 -1.988,-1.4 -3.416,-1.4 -1.876,0 -3.78,0.952 -4.62,2.772 l 0.084,-2.464 -2.1,0"
         style=""
         id="path3961" />
    </g>
    <g
       style="font-size:28px;font-style:normal;font-variant:normal;font-weight:500;font-stretch:normal;text-align:start;line-height:125%;letter-spacing:0px;word-spacing:0px;writing-mode:lr-tb;text-anchor:start;fill:#000000;fill-opacity:1;stroke:none;font-family:Inconsolata;-inkscape-font-specification:Inconsolata Medium"
       id="text3923">
      <path
         d="m 324.768,416.42648 c -1.008,-1.484 -2.716,-2.38 -4.788,-2.38 -3.752,0 -6.412,2.82801 -6.412,6.664 0,3.864 2.66,6.72 6.3,6.72 1.764,0 3.5,-0.728 4.704,-2.044 l -1.148,-1.344 c -0.868,0.98 -2.128,1.54 -3.388,1.54 -2.492,0 -4.396,-2.072 -4.396,-5.068 0,-2.91199 1.876,-4.732 4.228,-4.732 2.184,0 3.22,1.512 3.304,1.68 0.112,0.196 -0.056,0.476 0.168,0.644 l 1.428,-1.68"
         style=""
         id="path3964" />
      <path
         d="m 338.88,420.76648 c 0,-4.42399 -2.8,-6.72 -5.712,-6.72 -3.248,0 -6.048,2.80001 -6.048,6.776 0,3.892 2.772,6.636 5.992,6.636 3.024,0 5.768,-2.436 5.768,-6.692 m -5.852,-5.012 c 1.848,0 3.808,1.59601 3.808,5.096 0,3.22 -1.848,4.844 -3.696,4.844 -2.044,0 -3.892,-1.904 -3.892,-5.068 0,-3.13599 1.82,-4.872 3.78,-4.872"
         style=""
         id="path3966" />
      <path
         d="m 341.904,427.09448 2.044,0 0,-7.364 c 0,-0.84 0.112,-1.484 0.644,-2.184 0.476,-0.644 1.708,-1.792 3.052,-1.792 0.644,0 1.288,0.28 1.736,0.812 0.7,0.84 0.7,1.932 0.7,2.828 l 0,7.7 1.988,0 0,-7.756 0,0 c 0,-0.98 0,-2.044 -0.448,-3.08 -0.644,-1.428 -1.96,-2.24 -3.416,-2.24 -1.736,0 -3.304,1.12 -4.256,2.548 l 0,-2.24 -2.044,0 0,12.768"
         style=""
         id="path3968" />
      <path
         d="m 366.096,416.00648 c -1.176,-1.288 -2.884,-1.988 -4.788,-1.988 -2.968,0 -4.9,1.652 -4.9,3.556 0,2.24 2.408,3.052 3.108,3.304 1.092,0.392 2.492,0.728 3.444,1.176 1.064,0.504 1.26,1.176 1.26,1.624 0,1.204 -1.456,2.016 -3.276,2.016 -2.184,0 -3.584,-1.316 -4.004,-1.764 -0.084,-0.112 -0.084,-0.196 -0.084,-0.308 0,-0.028 0.028,-0.196 -0.112,-0.252 l -1.176,1.988 c 1.512,1.4 3.472,2.044 5.404,2.044 3.5,0 5.32,-2.072 5.32,-4.004 0,-0.868 -0.364,-2.044 -1.876,-2.884 -1.428,-0.812 -3.5,-1.092 -4.704,-1.68 -1.036,-0.504 -1.26,-1.12 -1.26,-1.568 0,-1.008 1.26,-1.736 2.688,-1.736 1.848,0 3.08,1.12 3.556,1.764 0.084,0.084 0.056,0.168 0.056,0.252 0,0.168 0.112,0.224 0.168,0.224 l 1.176,-1.764"
         style=""
         id="path3970" />
      <path
         d="m 369.736,414.32648 0,7.14 c 0,1.092 0,2.212 0.504,3.36 0.728,1.68 2.296,2.604 3.976,2.604 1.596,0 3.108,-0.868 3.948,-2.268 l -0.028,0.952 c 0,0.336 0,0.672 0.056,0.98 l 2.128,0 c -0.14,-0.364 -0.168,-0.784 -0.168,-1.148 l 0,-11.62 -2.016,0 0,7.028 c 0,0.98 -0.084,1.736 -0.504,2.52 -0.588,1.092 -1.736,1.904 -2.968,1.904 -0.98,0 -1.932,-0.56 -2.436,-1.568 -0.448,-0.896 -0.448,-1.904 -0.448,-2.744 l 0,-7.14 -2.044,0"
         style=""
         id="path3972" />
      <path
         d="m 383.036,427.09448 1.848,0 0,-8.512 c 0,-0.616 0.056,-1.176 0.42,-1.848 0.448,-0.84 1.008,-1.176 1.54,-1.176 0.448,0 0.952,0.28 1.176,0.98 0.168,0.532 0.14,1.148 0.14,1.68 l 0,8.876 1.876,0 0,-8.456 c 0,-0.672 0.056,-1.204 0.532,-2.016 0.224,-0.336 0.7,-1.148 1.484,-1.148 0.42,0 0.812,0.252 1.008,0.728 0.252,0.532 0.196,1.26 0.196,1.848 l 0,9.072 1.904,0 0,-9.1 c 0,-1.064 0.028,-2.128 -0.532,-2.996 -0.476,-0.728 -1.288,-1.008 -1.988,-1.008 -1.232,0 -2.38,0.728 -2.884,1.848 -0.196,-1.064 -1.092,-1.848 -2.24,-1.848 -1.064,0 -2.044,0.672 -2.632,1.568 l 0.028,-1.26 -1.876,0 0,12.768"
         style=""
         id="path3974" />
      <path
         d="m 403.224,414.01848 c -3.052,0 -5.88,2.18401 -5.88,6.832 0,4.284 2.66,6.552 6.132,6.552 1.848,0 3.5,-0.672 4.592,-1.988 l -1.12,-1.092 c -0.812,0.952 -2.044,1.456 -3.304,1.456 -1.708,0 -4.2,-0.952 -4.34,-4.788 l 9.072,0 c 0.084,-0.868 0.056,-1.708 -0.084,-2.436 -0.588,-3.44399 -2.968,-4.536 -5.068,-4.536 m -3.864,5.432 c 0.42,-3.02399 2.352,-3.892 3.724,-3.892 2.072,0 3.556,1.82 3.304,3.892 l -7.028,0"
         style=""
         id="path3976" />
      <path
         d="m 412.772,414.32648 0,12.796 2.016,0 0,-6.216 c 0,-0.784 0.028,-1.624 0.896,-2.996 1.176,-1.848 2.688,-2.156 3.612,-2.156 1.064,0 1.736,0.504 2.1,0.952 0.168,0.224 0.252,0.448 0.476,0.644 l 0.952,-1.932 c -0.812,-0.84 -1.988,-1.4 -3.416,-1.4 -1.876,0 -3.78,0.952 -4.62,2.772 l 0.084,-2.464 -2.1,0"
         style=""
         id="path3978" />
      <path
         d="m 436.096,416.00648 c -1.176,-1.288 -2.884,-1.988 -4.788,-1.988 -2.968,0 -4.9,1.652 -4.9,3.556 0,2.24 2.408,3.052 3.108,3.304 1.092,0.392 2.492,0.728 3.444,1.176 1.064,0.504 1.26,1.176 1.26,1.624 0,1.204 -1.456,2.016 -3.276,2.016 -2.184,0 -3.584,-1.316 -4.004,-1.764 -0.084,-0.112 -0.084,-0.196 -0.084,-0.308 0,-0.028 0.028,-0.196 -0.112,-0.252 l -1.176,1.988 c 1.512,1.4 3.472,2.044 5.404,2.044 3.5,0 5.32,-2.072 5.32,-4.004 0,-0.868 -0.364,-2.044 -1.876,-2.884 -1.428,-0.812 -3.5,-1.092 -4.704,-1.68 -1.036,-0.504 -1.26,-1.12 -1.26,-1.568 0,-1.008 1.26,-1.736 2.688,-1.736 1.848,0 3.08,1.12 3.556,1.764 0.084,0.084 0.056,0.168 0.056,0.252 0,0.168 0.112,0.224 0.168,0.224 l 1.176,-1.764"
         style=""
         id="path3980" />
    </g>
  </g>
</svg>
