<?xml version="1.0" encoding="UTF-8" standalone="no"?>
<!-- Created with Inkscape (http://www.inkscape.org/) -->

<svg
   xmlns:dc="http://purl.org/dc/elements/1.1/"
   xmlns:cc="http://creativecommons.org/ns#"
   xmlns:rdf="http://www.w3.org/1999/02/22-rdf-syntax-ns#"
   xmlns:svg="http://www.w3.org/2000/svg"
   xmlns="http://www.w3.org/2000/svg"
   version="1.1"
   width="617.59766"
   height="136.53125"
   viewbox = "0 0 617.59766 136.53125"
   id="svg5824">
  <defs
     id="defs5826" />
  <metadata
     id="metadata5829">
    <rdf:RDF>
      <cc:Work
         rdf:about="">
        <dc:format>image/svg+xml</dc:format>
        <dc:type
           rdf:resource="http://purl.org/dc/dcmitype/StillImage" />
        <dc:title></dc:title>
      </cc:Work>
    </rdf:RDF>
  </metadata>
  <g
     transform="translate(-47.792969,-322.14343)"
     id="layer1">
    <g
       id="text5832"
       style="font-size:64px;font-style:normal;font-variant:normal;font-weight:bold;font-stretch:normal;text-align:start;line-height:125%;letter-spacing:0px;word-spacing:0px;writing-mode:lr-tb;text-anchor:start;fill:#d40000;fill-opacity:1;stroke:none;font-family:Gill Sans MT;-inkscape-font-specification:Gill Sans MT Bold">
      <path
         d="m 204.8125,322.70593 19.25,0 c 7.43747,5e-5 13.31246,2.04171 17.625,6.125 4.33329,4.06254 6.49995,9.32295 6.5,15.78125 -5e-5,6.77085 -2.19796,12.09376 -6.59375,15.96875 -4.37504,3.85417 -10.62503,5.78125 -18.75,5.78125 l -18.03125,0 0,-43.65625 m 10.875,8 0,27.65625 7.09375,0 c 4.60414,10e-6 8.12497,-1.2604 10.5625,-3.78125 2.43746,-2.54165 3.65621,-5.8854 3.65625,-10.03125 -4e-5,-4.29164 -1.23962,-7.66663 -3.71875,-10.125 -2.45836,-2.47913 -6.00003,-3.71871 -10.625,-3.71875 l -6.96875,0"
         id="path5841" />
      <path
         d="m 264.75,336.86218 0,8.4375 0.125,0 c 2.68748,-6.0208 5.8229,-9.03122 9.40625,-9.03125 1.70831,3e-5 3.76039,0.89587 6.15625,2.6875 l -2.5625,8.21875 c -2.29169,-1.45831 -4.12502,-2.18748 -5.5,-2.1875 -2.14585,2e-5 -3.95835,1.33336 -5.4375,4 -1.45835,2.64585 -2.18751,4.18752 -2.1875,4.625 l 0,12.75 -9.28125,0 0,-29.5 9.28125,0"
         id="path5843" />
      <path
         d="m 314.09375,359.08093 0,5.15625 c -3.08336,1.79167 -5.97919,2.6875 -8.6875,2.6875 -2.91669,0 -4.64585,-1.10416 -5.1875,-3.3125 -3.22918,2.20834 -6.46876,3.3125 -9.71875,3.3125 -2.29167,0 -4.23959,-0.71875 -5.84375,-2.15625 -1.60417,-1.45833 -2.40625,-3.14583 -2.40625,-5.0625 0,-2.56249 0.82291,-4.62499 2.46875,-6.1875 1.66666,-1.58332 6.68749,-3.61456 15.0625,-6.09375 0.20831,-3.29164 -1.50002,-4.93747 -5.125,-4.9375 -3.93751,3e-5 -7.56251,1.64586 -10.875,4.9375 l 0,-7.5625 c 3.87499,-2.3958 8.1354,-3.59372 12.78125,-3.59375 8.33331,3e-5 12.49997,2.98961 12.5,8.96875 l 0,13.4375 c -3e-5,1.37501 0.51039,2.06251 1.53125,2.0625 0.7708,10e-6 1.93747,-0.55207 3.5,-1.65625 m -14.3125,0.125 0,-7.125 c -3.10418,1.08335 -5.2396,2.06251 -6.40625,2.9375 -1.14585,0.85418 -1.71876,1.94793 -1.71875,3.28125 -10e-6,0.85418 0.29165,1.59376 0.875,2.21875 0.58332,0.60417 1.29165,0.90626 2.125,0.90625 1.74998,10e-6 3.45832,-0.73958 5.125,-2.21875"
         id="path5845" />
      <path
         d="m 328.59375,336.86218 4.21875,0 0,6.34375 -4.21875,0 0,23.15625 -9.28125,0 0,-23.15625 -4.21875,0 0,-6.34375 4.21875,0 0,-1.46875 c -10e-6,-4.1458 1.16666,-7.38538 3.5,-9.71875 2.33332,-2.35412 5.47915,-3.5312 9.4375,-3.53125 0.95831,5e-5 2.83331,0.18755 5.625,0.5625 l 0,7.5 c -1.93752,-0.24996 -3.32294,-0.37496 -4.15625,-0.375 -3.41668,4e-5 -5.12501,1.71879 -5.125,5.15625 l 0,1.875"
         id="path5847" />
      <path
         d="m 358.53125,336.86218 0,6.34375 -10.75,0 0,12.15625 c -10e-6,1.45835 0.39582,2.61459 1.1875,3.46875 0.81248,0.83334 1.92707,1.25001 3.34375,1.25 1.91665,10e-6 3.98956,-0.57291 6.21875,-1.71875 l 0,6.71875 c -2.95836,1.22917 -5.82294,1.84375 -8.59375,1.84375 -3.62501,0 -6.43751,-0.9375 -8.4375,-2.8125 -2.00001,-1.87499 -3,-4.62499 -3,-8.25 l 0,-12.65625 -4.21875,0 0,-1.8125 12.34375,-13.8125 1.15625,0 0,9.28125 10.75,0"
         id="path5849" />
      <path
         d="m 405.28125,322.14343 c 7.43746,5e-5 13.45829,2.25004 18.0625,6.75 4.60412,4.4792 6.9062,9.69795 6.90625,15.65625 -5e-5,6.04169 -2.33338,11.28126 -7,15.71875 -4.66671,4.4375 -10.65629,6.65625 -17.96875,6.65625 -7.39585,0 -13.41668,-2.20833 -18.0625,-6.625 -4.64584,-4.41665 -6.96875,-9.66665 -6.96875,-15.75 0,-5.97914 2.30208,-11.2083 6.90625,-15.6875 4.62499,-4.47912 10.66665,-6.7187 18.125,-6.71875 m 0,35.71875 c 4.12497,10e-6 7.44788,-1.21874 9.96875,-3.65625 2.52079,-2.45832 3.78121,-5.67706 3.78125,-9.65625 -4e-5,-3.99997 -1.26046,-7.21872 -3.78125,-9.65625 -2.52087,-2.43746 -5.84378,-3.65621 -9.96875,-3.65625 -4.14586,4e-5 -7.4896,1.21879 -10.03125,3.65625 -2.52085,2.43753 -3.78126,5.65628 -3.78125,9.65625 -10e-6,3.97919 1.2604,7.19793 3.78125,9.65625 2.54165,2.43751 5.88539,3.65626 10.03125,3.65625"
         id="path5851" />
      <path
         d="m 446.375,336.86218 0,4.21875 c 2.72915,-3.2083 5.92706,-4.81247 9.59375,-4.8125 3.06247,3e-5 5.61455,0.9792 7.65625,2.9375 2.06247,1.95836 3.09372,4.76044 3.09375,8.40625 l 0,18.75 -9.28125,0 0,-17.96875 c -2e-5,-3.93748 -1.53127,-5.90622 -4.59375,-5.90625 -2.18752,3e-5 -4.34377,1.62502 -6.46875,4.875 l 0,19 -9.28125,0 0,-29.5 9.28125,0"
         id="path5853" />
      <path
         d="m 483.9375,322.70593 0,43.65625 -9.28125,0 0,-43.65625 9.28125,0"
         id="path5855" />
      <path
         d="m 519.9375,336.86218 -19.75,43.65625 -9.875,0 8.65625,-18.96875 -11.53125,-24.6875 9.90625,0 6.21875,15.15625 6.65625,-15.15625 9.71875,0"
         id="path5857" />
    </g>
    <g
       id="text5836"
       style="font-size:40px;font-style:normal;font-variant:normal;font-weight:normal;font-stretch:normal;text-align:start;line-height:125%;letter-spacing:0px;word-spacing:0px;writing-mode:lr-tb;text-anchor:start;fill:#d40000;fill-opacity:1;stroke:none;font-family:Gill Sans MT;-inkscape-font-specification:Gill Sans MT">
      <path
         d="m 47.792969,458.36218 0,-27.32422 8.652343,0 c 2.604153,3e-5 4.680974,0.70316 6.230469,2.10938 1.54946,1.40627 2.324199,3.29429 2.324219,5.66406 -2e-5,1.58856 -0.397155,2.99481 -1.191406,4.21875 -0.794289,1.22397 -1.881528,2.1159 -3.261719,2.67578 -1.380223,0.54689 -3.359387,0.82033 -5.9375,0.82032 l -2.890625,0 0,11.83593 -3.925781,0 m 7.96875,-23.84765 -4.042969,0 0,8.53515 4.277344,0 c 1.588529,2e-5 2.812486,-0.37108 3.671875,-1.11328 0.859359,-0.75519 1.289046,-1.82941 1.289062,-3.22265 -1.6e-5,-2.79946 -1.731785,-4.1992 -5.195312,-4.19922"
         id="path5860" />
      <path
         d="m 67.988281,431.07703 3.554688,0 0,27.28515 -3.554688,0 0,-27.28515"
         id="path5862" />
      <path
         d="m 91.972656,449.69031 -12.636719,0 c 0.09114,1.71875 0.664057,3.08594 1.71875,4.10156 1.067701,1.01563 2.441397,1.52344 4.121094,1.52344 2.343737,0 4.505193,-0.72917 6.484375,-2.1875 l 0,3.47656 c -1.093766,0.72917 -2.181005,1.25 -3.261719,1.5625 -1.067721,0.3125 -2.32423,0.46875 -3.769531,0.46875 -1.979175,0 -3.580736,-0.41016 -4.804687,-1.23047 -1.223963,-0.82031 -2.207035,-1.92057 -2.949219,-3.30078 -0.729169,-1.39322 -1.093752,-3.00129 -1.09375,-4.82422 -2e-6,-2.73436 0.774737,-4.95441 2.324219,-6.66015 1.549473,-1.71874 3.56119,-2.57811 6.035156,-2.57813 2.3828,2e-5 4.28384,0.83335 5.703125,2.5 1.419254,1.66668 2.128888,3.89975 2.128906,6.69922 l 0,0.44922 m -12.558594,-2.12891 9.042969,0 c -0.09116,-1.41926 -0.514336,-2.51301 -1.269531,-3.28125 -0.755221,-0.76821 -1.770845,-1.15233 -3.046875,-1.15234 -1.27605,10e-6 -2.324226,0.38413 -3.144531,1.15234 -0.807298,0.76824 -1.334641,1.86199 -1.582032,3.28125"
         id="path5864" />
      <path
         d="m 107.08984,447.5614 0,7.63672 c -10e-6,0.61198 0.20832,0.91797 0.625,0.91797 0.42968,0 1.10025,-0.31901 2.01172,-0.95703 l 0,2.16797 c -0.8073,0.52083 -1.45835,0.87239 -1.95312,1.05468 -0.48179,0.19532 -0.9896,0.29297 -1.52344,0.29297 -1.52345,0 -2.42189,-0.59896 -2.69531,-1.79687 -1.51043,1.17187 -3.1185,1.75781 -4.824221,1.75781 -1.250004,0 -2.29167,-0.41016 -3.125,-1.23047 -0.833335,-0.83333 -1.250001,-1.875 -1.25,-3.125 -10e-7,-1.13281 0.403644,-2.14192 1.210937,-3.02734 0.82031,-0.89843 1.979163,-1.60807 3.476563,-2.12891 l 4.550781,-1.5625 0,-0.95703 c -1e-5,-2.16144 -1.08074,-3.24217 -3.24219,-3.24219 -1.940107,2e-5 -3.828126,1.00262 -5.66406,3.00782 l 0,-3.88672 c 1.380206,-1.62759 3.365881,-2.44139 5.95703,-2.44141 1.9401,2e-5 3.49608,0.50783 4.66797,1.52344 0.39061,0.32553 0.74217,0.76173 1.05469,1.30859 0.31248,0.53387 0.5078,1.07423 0.58594,1.6211 0.0911,0.53386 0.1367,1.556 0.13671,3.0664 m -3.49609,7.2461 0,-5.33204 -2.38281,0.91797 c -1.210947,0.48178 -2.070321,0.97006 -2.578128,1.46485 -0.494796,0.48177 -0.742192,1.08724 -0.742187,1.8164 -5e-6,0.74219 0.23437,1.34766 0.703125,1.81641 0.481765,0.46875 1.100254,0.70313 1.85547,0.70312 1.1328,10e-6 2.18098,-0.46223 3.14453,-1.38671"
         id="path5866" />
      <path
         d="m 112.03125,457.07312 0,-3.82812 c 1.0026,0.70312 2.02474,1.27604 3.06641,1.71875 1.05468,0.42969 1.94009,0.64453 2.65625,0.64453 0.74218,0 1.3802,-0.18229 1.91406,-0.54688 0.53384,-0.36458 0.80077,-0.80078 0.80078,-1.30859 -1e-5,-0.52083 -0.17579,-0.95052 -0.52734,-1.28906 -0.33855,-0.35156 -1.08074,-0.85286 -2.22657,-1.50391 -2.29167,-1.27603 -3.79557,-2.36327 -4.51171,-3.26172 -0.70313,-0.91145 -1.05469,-1.90103 -1.05469,-2.96875 0,-1.38019 0.53385,-2.50649 1.60156,-3.37891 1.08072,-0.87237 2.46744,-1.30857 4.16016,-1.30859 1.7578,2e-5 3.56118,0.49481 5.41015,1.48438 l 0,3.51562 c -2.10938,-1.27603 -3.83464,-1.91405 -5.17578,-1.91406 -0.69011,10e-6 -1.25001,0.14975 -1.67969,0.44922 -0.41667,0.28647 -0.625,0.67058 -0.625,1.15234 0,0.41668 0.1888,0.81382 0.56641,1.19141 0.39062,0.37761 1.0677,0.83334 2.03125,1.36718 l 1.26953,0.72266 c 2.99478,1.69272 4.49217,3.56772 4.49219,5.625 -2e-5,1.47136 -0.57944,2.68229 -1.73828,3.63281 -1.14585,0.9375 -2.62371,1.40625 -4.4336,1.40625 -1.06771,0 -2.01823,-0.11067 -2.85156,-0.33203 -0.83334,-0.23437 -1.88151,-0.65755 -3.14453,-1.26953"
         id="path5868" />
      <path
         d="m 143.61328,449.69031 -12.63672,0 c 0.0911,1.71875 0.66406,3.08594 1.71875,4.10156 1.0677,1.01563 2.4414,1.52344 4.1211,1.52344 2.34373,0 4.50519,-0.72917 6.48437,-2.1875 l 0,3.47656 c -1.09377,0.72917 -2.181,1.25 -3.26172,1.5625 -1.06772,0.3125 -2.32423,0.46875 -3.76953,0.46875 -1.97917,0 -3.58073,-0.41016 -4.80469,-1.23047 -1.22396,-0.82031 -2.20703,-1.92057 -2.94922,-3.30078 -0.72916,-1.39322 -1.09375,-3.00129 -1.09374,-4.82422 -1e-5,-2.73436 0.77473,-4.95441 2.32421,-6.66015 1.54948,-1.71874 3.56119,-2.57811 6.03516,-2.57813 2.3828,2e-5 4.28384,0.83335 5.70312,2.5 1.41926,1.66668 2.12889,3.89975 2.12891,6.69922 l 0,0.44922 m -12.55859,-2.12891 9.04297,0 c -0.0912,-1.41926 -0.51434,-2.51301 -1.26954,-3.28125 -0.75522,-0.76821 -1.77084,-1.15233 -3.04687,-1.15234 -1.27605,10e-6 -2.32423,0.38413 -3.14453,1.15234 -0.8073,0.76824 -1.33464,1.86199 -1.58203,3.28125"
         id="path5870" />
      <path
         d="m 170.52734,431.07703 3.57422,0 0,27.28515 -7.59765,0 c -2.65626,0 -4.77866,-0.83984 -6.36719,-2.51953 -1.57552,-1.67968 -2.36328,-3.93228 -2.36328,-6.75781 0,-2.64322 0.82682,-4.8177 2.48047,-6.52344 1.66666,-1.70571 3.78905,-2.55857 6.36718,-2.55859 1.19791,2e-5 2.49999,0.25392 3.90625,0.76172 l 0,-9.6875 m 0,24.23828 0,-11.38672 c -1.10678,-0.55988 -2.22657,-0.83983 -3.35937,-0.83984 -1.77084,10e-6 -3.1836,0.57944 -4.23828,1.73828 -1.04168,1.15886 -1.56251,2.72136 -1.5625,4.6875 -1e-5,1.84896 0.45572,3.27474 1.36718,4.27734 0.54687,0.59896 1.1263,1.00261 1.73829,1.21094 0.61197,0.20833 1.71223,0.3125 3.30078,0.3125 l 2.7539,0"
         id="path5872" />
      <path
         d="m 187.51953,440.35437 c 2.73436,2e-5 5.0065,0.88543 6.81641,2.65625 1.80987,1.75783 2.71482,3.97137 2.71484,6.64063 -2e-5,2.59115 -0.91799,4.74609 -2.75391,6.46484 -1.83595,1.70573 -4.14714,2.55859 -6.93359,2.55859 -2.69532,0 -4.94792,-0.86588 -6.75781,-2.59765 -1.8099,-1.74479 -2.71485,-3.91927 -2.71485,-6.52344 0,-2.6302 0.91146,-4.8177 2.73438,-6.5625 1.83593,-1.7578 4.13411,-2.6367 6.89453,-2.63672 m -0.19531,3.20313 c -1.70574,10e-6 -3.10548,0.55991 -4.19922,1.67968 -1.09376,1.11981 -1.64063,2.54559 -1.64063,4.27735 0,1.71875 0.5599,3.125 1.67969,4.21875 1.11979,1.08073 2.55859,1.62109 4.31641,1.62109 1.74478,0 3.17056,-0.54687 4.27734,-1.64062 1.11978,-1.10677 1.67967,-2.51953 1.67969,-4.23829 -2e-5,-1.70571 -0.57944,-3.11847 -1.73828,-4.23828 -1.15887,-1.11977 -2.6172,-1.67967 -4.375,-1.67968"
         id="path5874" />
      <path
         d="m 215.68359,440.39343 0,2.28516 c 1.58854,-1.7578 3.39192,-2.6367 5.41016,-2.63672 1.11978,2e-5 2.16144,0.29299 3.125,0.87891 0.96353,0.57293 1.69269,1.3672 2.1875,2.38281 0.5078,1.00262 0.7617,2.59767 0.76172,4.78516 l 0,10.27343 -3.55469,0 0,-10.23437 c -1e-5,-1.83593 -0.27996,-3.14452 -0.83984,-3.92578 -0.55991,-0.79426 -1.49741,-1.19139 -2.8125,-1.19141 -1.6797,2e-5 -3.10548,0.83986 -4.27735,2.51953 l 0,12.83203 -3.63281,0 0,-17.96875 3.63281,0"
         id="path5876" />
      <path
         d="m 240.72266,440.35437 c 2.73436,2e-5 5.00649,0.88543 6.8164,2.65625 1.80988,1.75783 2.71483,3.97137 2.71485,6.64063 -2e-5,2.59115 -0.91799,4.74609 -2.75391,6.46484 -1.83595,1.70573 -4.14715,2.55859 -6.93359,2.55859 -2.69532,0 -4.94793,-0.86588 -6.75782,-2.59765 -1.80989,-1.74479 -2.71484,-3.91927 -2.71484,-6.52344 0,-2.6302 0.91146,-4.8177 2.73437,-6.5625 1.83594,-1.7578 4.13411,-2.6367 6.89454,-2.63672 m -0.19532,3.20313 c -1.70573,10e-6 -3.10547,0.55991 -4.19922,1.67968 -1.09375,1.11981 -1.64063,2.54559 -1.64062,4.27735 -1e-5,1.71875 0.55989,3.125 1.67969,4.21875 1.11978,1.08073 2.55858,1.62109 4.3164,1.62109 1.74478,0 3.17056,-0.54687 4.27735,-1.64062 1.11977,-1.10677 1.67967,-2.51953 1.67968,-4.23829 -1e-5,-1.70571 -0.57944,-3.11847 -1.73828,-4.23828 -1.15886,-1.11977 -2.6172,-1.67967 -4.375,-1.67968"
         id="path5878" />
      <path
         d="m 251.71875,443.245 6.67969,-6.5625 0,3.71093 5.68359,0 0,3.20313 -5.68359,0 0,8.80859 c -10e-6,2.0573 0.85285,3.08594 2.55859,3.08594 1.27603,0 2.62369,-0.42969 4.04297,-1.28906 l 0,3.32031 c -1.3672,0.76823 -2.85808,1.15234 -4.47266,1.15234 -1.62761,0 -2.98177,-0.47526 -4.0625,-1.42578 -0.33854,-0.28646 -0.61849,-0.60547 -0.83984,-0.95703 -0.22136,-0.36458 -0.41016,-0.83333 -0.56641,-1.40625 -0.14323,-0.58593 -0.21484,-1.6927 -0.21484,-3.32031 l 0,-7.96875 -3.125,0 0,-0.35156"
         id="path5880" />
      <path
         d="m 277.8125,457.07312 0,-3.82812 c 1.0026,0.70312 2.02474,1.27604 3.06641,1.71875 1.05468,0.42969 1.94009,0.64453 2.65625,0.64453 0.74218,0 1.3802,-0.18229 1.91406,-0.54688 0.53384,-0.36458 0.80077,-0.80078 0.80078,-1.30859 -10e-6,-0.52083 -0.17579,-0.95052 -0.52734,-1.28906 -0.33855,-0.35156 -1.08074,-0.85286 -2.22657,-1.50391 -2.29167,-1.27603 -3.79557,-2.36327 -4.51172,-3.26172 -0.70312,-0.91145 -1.05468,-1.90103 -1.05468,-2.96875 0,-1.38019 0.53385,-2.50649 1.60156,-3.37891 1.08072,-0.87237 2.46744,-1.30857 4.16016,-1.30859 1.7578,2e-5 3.56118,0.49481 5.41015,1.48438 l 0,3.51562 c -2.10938,-1.27603 -3.83464,-1.91405 -5.17578,-1.91406 -0.69011,10e-6 -1.25001,0.14975 -1.67969,0.44922 -0.41667,0.28647 -0.625,0.67058 -0.625,1.15234 0,0.41668 0.1888,0.81382 0.56641,1.19141 0.39062,0.37761 1.0677,0.83334 2.03125,1.36718 l 1.26953,0.72266 c 2.99478,1.69272 4.49217,3.56772 4.49219,5.625 -2e-5,1.47136 -0.57944,2.68229 -1.73828,3.63281 -1.14585,0.9375 -2.62371,1.40625 -4.4336,1.40625 -1.06771,0 -2.01823,-0.11067 -2.85156,-0.33203 -0.83334,-0.23437 -1.88151,-0.65755 -3.14453,-1.26953"
         id="path5882" />
      <path
         d="m 294.00391,431.07703 3.55468,0 0,11.67968 c 1.48437,-1.80987 3.32682,-2.71482 5.52735,-2.71484 1.1979,2e-5 2.27212,0.2995 3.22265,0.89844 0.95051,0.59897 1.65363,1.42579 2.10938,2.48047 0.46873,1.0547 0.70311,2.62371 0.70312,4.70703 l 0,10.23437 -3.55468,0 0,-11.11328 c -2e-5,-1.31509 -0.32554,-2.36978 -0.97657,-3.16406 -0.63803,-0.80728 -1.48438,-1.21092 -2.53906,-1.21094 -0.78126,2e-5 -1.51693,0.20184 -2.20703,0.60547 -0.69011,0.40366 -1.45183,1.07423 -2.28516,2.01172 l 0,12.87109 -3.55468,0 0,-27.28515"
         id="path5884" />
      <path
         d="m 325.37109,447.5614 0,7.63672 c -10e-6,0.61198 0.20832,0.91797 0.625,0.91797 0.42968,0 1.10025,-0.31901 2.01172,-0.95703 l 0,2.16797 c -0.8073,0.52083 -1.45835,0.87239 -1.95312,1.05468 -0.48179,0.19532 -0.9896,0.29297 -1.52344,0.29297 -1.52345,0 -2.42189,-0.59896 -2.69531,-1.79687 -1.51043,1.17187 -3.1185,1.75781 -4.82422,1.75781 -1.25001,0 -2.29167,-0.41016 -3.125,-1.23047 -0.83334,-0.83333 -1.25,-1.875 -1.25,-3.125 0,-1.13281 0.40364,-2.14192 1.21094,-3.02734 0.82031,-0.89843 1.97916,-1.60807 3.47656,-2.12891 l 4.55078,-1.5625 0,-0.95703 c -10e-6,-2.16144 -1.08074,-3.24217 -3.24219,-3.24219 -1.94011,2e-5 -3.82813,1.00262 -5.66406,3.00782 l 0,-3.88672 c 1.38021,-1.62759 3.36588,-2.44139 5.95703,-2.44141 1.9401,2e-5 3.49608,0.50783 4.66797,1.52344 0.39061,0.32553 0.74217,0.76173 1.05469,1.30859 0.31248,0.53387 0.5078,1.07423 0.58593,1.6211 0.0911,0.53386 0.13671,1.556 0.13672,3.0664 m -3.49609,7.2461 0,-5.33204 -2.38281,0.91797 c -1.21095,0.48178 -2.07032,0.97006 -2.57813,1.46485 -0.49479,0.48177 -0.74219,1.08724 -0.74219,1.8164 0,0.74219 0.23438,1.34766 0.70313,1.81641 0.48177,0.46875 1.10025,0.70313 1.85547,0.70312 1.1328,10e-6 2.18098,-0.46223 3.14453,-1.38671"
         id="path5886" />
      <path
         d="m 335,440.39343 0,4.1211 0.19531,-0.3125 c 1.71874,-2.77342 3.43749,-4.16014 5.15625,-4.16016 1.34114,2e-5 2.74087,0.6771 4.19922,2.03125 l -1.875,3.125 c -1.23699,-1.17186 -2.38282,-1.7578 -3.4375,-1.75781 -1.14584,10e-6 -2.14193,0.54689 -2.98828,1.64062 -0.83334,1.09376 -1.25001,2.38934 -1.25,3.88672 l 0,9.39453 -3.57422,0 0,-17.96875 3.57422,0"
         id="path5888" />
      <path
         d="m 361.58203,449.69031 -12.63672,0 c 0.0911,1.71875 0.66406,3.08594 1.71875,4.10156 1.0677,1.01563 2.4414,1.52344 4.1211,1.52344 2.34373,0 4.50519,-0.72917 6.48437,-2.1875 l 0,3.47656 c -1.09377,0.72917 -2.181,1.25 -3.26172,1.5625 -1.06772,0.3125 -2.32423,0.46875 -3.76953,0.46875 -1.97917,0 -3.58073,-0.41016 -4.80469,-1.23047 -1.22396,-0.82031 -2.20703,-1.92057 -2.94922,-3.30078 -0.72916,-1.39322 -1.09375,-3.00129 -1.09375,-4.82422 0,-2.73436 0.77474,-4.95441 2.32422,-6.66015 1.54948,-1.71874 3.56119,-2.57811 6.03516,-2.57813 2.3828,2e-5 4.28384,0.83335 5.70312,2.5 1.41926,1.66668 2.12889,3.89975 2.12891,6.69922 l 0,0.44922 m -12.55859,-2.12891 9.04297,0 c -0.0912,-1.41926 -0.51434,-2.51301 -1.26954,-3.28125 -0.75522,-0.76821 -1.77084,-1.15233 -3.04687,-1.15234 -1.27605,10e-6 -2.32423,0.38413 -3.14453,1.15234 -0.8073,0.76824 -1.33464,1.86199 -1.58203,3.28125"
         id="path5890" />
      <path
         d="m 385.09766,440.35437 c 2.73436,2e-5 5.00649,0.88543 6.8164,2.65625 1.80988,1.75783 2.71483,3.97137 2.71485,6.64063 -2e-5,2.59115 -0.91799,4.74609 -2.75391,6.46484 -1.83595,1.70573 -4.14715,2.55859 -6.93359,2.55859 -2.69532,0 -4.94793,-0.86588 -6.75782,-2.59765 -1.80989,-1.74479 -2.71484,-3.91927 -2.71484,-6.52344 0,-2.6302 0.91146,-4.8177 2.73437,-6.5625 1.83594,-1.7578 4.13411,-2.6367 6.89454,-2.63672 m -0.19532,3.20313 c -1.70573,10e-6 -3.10547,0.55991 -4.19922,1.67968 -1.09375,1.11981 -1.64063,2.54559 -1.64062,4.27735 -10e-6,1.71875 0.55989,3.125 1.67969,4.21875 1.11978,1.08073 2.55858,1.62109 4.3164,1.62109 1.74478,0 3.17056,-0.54687 4.27735,-1.64062 1.11977,-1.10677 1.67967,-2.51953 1.67968,-4.23829 -1e-5,-1.70571 -0.57944,-3.11847 -1.73828,-4.23828 -1.15886,-1.11977 -2.6172,-1.67967 -4.375,-1.67968"
         id="path5892" />
      <path
         d="m 402.42187,440.39343 0,4.1211 0.19532,-0.3125 c 1.71874,-2.77342 3.43749,-4.16014 5.15625,-4.16016 1.34113,2e-5 2.74087,0.6771 4.19922,2.03125 l -1.875,3.125 c -1.237,-1.17186 -2.38283,-1.7578 -3.4375,-1.75781 -1.14585,10e-6 -2.14194,0.54689 -2.98829,1.64062 -0.83334,1.09376 -1.25,2.38934 -1.25,3.88672 l 0,9.39453 -3.57421,0 0,-17.96875 3.57421,0"
         id="path5894" />
      <path
         d="m 425.64453,431.07703 3.55469,0 0,27.28515 -3.55469,0 0,-27.28515"
         id="path5896" />
      <path
         d="m 436.15234,432.83484 c 0.58594,2e-5 1.08724,0.20185 1.50391,0.60547 0.41666,0.40367 0.62499,0.89846 0.625,1.48437 -10e-6,0.57294 -0.20834,1.06773 -0.625,1.48438 -0.41667,0.41669 -0.91797,0.62502 -1.50391,0.625 -0.54688,2e-5 -1.02865,-0.20831 -1.44531,-0.625 -0.41667,-0.42967 -0.625,-0.92446 -0.625,-1.48438 0,-0.54685 0.20833,-1.02862 0.625,-1.44531 0.41666,-0.42966 0.89843,-0.64451 1.44531,-0.64453 m -1.75781,7.55859 3.55469,0 0,17.96875 -3.55469,0 0,-17.96875"
         id="path5898" />
      <path
         d="m 446.62109,440.39343 0,2.28516 c 1.58854,-1.7578 3.39192,-2.6367 5.41016,-2.63672 1.11978,2e-5 2.16144,0.29299 3.125,0.87891 0.96353,0.57293 1.69269,1.3672 2.1875,2.38281 0.5078,1.00262 0.7617,2.59767 0.76172,4.78516 l 0,10.27343 -3.55469,0 0,-10.23437 c -10e-6,-1.83593 -0.27996,-3.14452 -0.83984,-3.92578 -0.55991,-0.79426 -1.49741,-1.19139 -2.8125,-1.19141 -1.6797,2e-5 -3.10548,0.83986 -4.27735,2.51953 l 0,12.83203 -3.63281,0 0,-17.96875 3.63281,0"
         id="path5900" />
      <path
         d="m 474.74609,440.39343 4.23828,0 -7.67578,8.8086 9.23828,9.16015 -4.76562,0 -9.00391,-9.16015 7.96875,-8.8086 m -11.67968,-9.3164 3.55468,0 0,27.28515 -3.55468,0 0,-27.28515"
         id="path5902" />
      <path
         d="m 490.78125,443.245 6.67969,-6.5625 0,3.71093 5.68359,0 0,3.20313 -5.68359,0 0,8.80859 c -10e-6,2.0573 0.85285,3.08594 2.55859,3.08594 1.27603,0 2.62369,-0.42969 4.04297,-1.28906 l 0,3.32031 c -1.3672,0.76823 -2.85808,1.15234 -4.47266,1.15234 -1.62761,0 -2.98177,-0.47526 -4.0625,-1.42578 -0.33854,-0.28646 -0.61849,-0.60547 -0.83984,-0.95703 -0.22136,-0.36458 -0.41016,-0.83333 -0.56641,-1.40625 -0.14323,-0.58593 -0.21484,-1.6927 -0.21484,-3.32031 l 0,-7.96875 -3.125,0 0,-0.35156"
         id="path5904" />
      <path
         d="m 515.25391,440.35437 c 2.73436,2e-5 5.00649,0.88543 6.8164,2.65625 1.80988,1.75783 2.71483,3.97137 2.71485,6.64063 -2e-5,2.59115 -0.91799,4.74609 -2.75391,6.46484 -1.83595,1.70573 -4.14715,2.55859 -6.93359,2.55859 -2.69532,0 -4.94793,-0.86588 -6.75782,-2.59765 -1.80989,-1.74479 -2.71484,-3.91927 -2.71484,-6.52344 0,-2.6302 0.91146,-4.8177 2.73437,-6.5625 1.83594,-1.7578 4.13411,-2.6367 6.89454,-2.63672 m -0.19532,3.20313 c -1.70573,10e-6 -3.10547,0.55991 -4.19922,1.67968 -1.09375,1.11981 -1.64063,2.54559 -1.64062,4.27735 -10e-6,1.71875 0.55989,3.125 1.67969,4.21875 1.11978,1.08073 2.55858,1.62109 4.3164,1.62109 1.74478,0 3.17056,-0.54687 4.27735,-1.64062 1.11977,-1.10677 1.67967,-2.51953 1.67968,-4.23829 -10e-6,-1.70571 -0.57944,-3.11847 -1.73828,-4.23828 -1.15886,-1.11977 -2.6172,-1.67967 -4.375,-1.67968"
         id="path5906" />
      <path
         d="m 537.34375,443.245 6.67969,-6.5625 0,3.71093 5.68359,0 0,3.20313 -5.68359,0 0,8.80859 c -1e-5,2.0573 0.85285,3.08594 2.55859,3.08594 1.27603,0 2.62369,-0.42969 4.04297,-1.28906 l 0,3.32031 c -1.3672,0.76823 -2.85808,1.15234 -4.47266,1.15234 -1.62761,0 -2.98177,-0.47526 -4.0625,-1.42578 -0.33854,-0.28646 -0.61849,-0.60547 -0.83984,-0.95703 -0.22136,-0.36458 -0.41016,-0.83333 -0.56641,-1.40625 -0.14323,-0.58593 -0.21484,-1.6927 -0.21484,-3.32031 l 0,-7.96875 -3.125,0 0,-0.35156"
         id="path5908" />
      <path
         d="m 553.14453,431.07703 3.55469,0 0,11.67968 c 1.48437,-1.80987 3.32681,-2.71482 5.52734,-2.71484 1.19791,2e-5 2.27212,0.2995 3.22266,0.89844 0.9505,0.59897 1.65363,1.42579 2.10937,2.48047 0.46874,1.0547 0.70311,2.62371 0.70313,4.70703 l 0,10.23437 -3.55469,0 0,-11.11328 c -10e-6,-1.31509 -0.32553,-2.36978 -0.97656,-3.16406 -0.63803,-0.80728 -1.48439,-1.21092 -2.53906,-1.21094 -0.78126,2e-5 -1.51694,0.20184 -2.20704,0.60547 -0.69011,0.40366 -1.45182,1.07423 -2.28515,2.01172 l 0,12.87109 -3.55469,0 0,-27.28515"
         id="path5910" />
      <path
         d="m 575.05859,432.83484 c 0.58594,2e-5 1.08724,0.20185 1.50391,0.60547 0.41666,0.40367 0.62499,0.89846 0.625,1.48437 -10e-6,0.57294 -0.20834,1.06773 -0.625,1.48438 -0.41667,0.41669 -0.91797,0.62502 -1.50391,0.625 -0.54688,2e-5 -1.02865,-0.20831 -1.44531,-0.625 -0.41667,-0.42967 -0.625,-0.92446 -0.625,-1.48438 0,-0.54685 0.20833,-1.02862 0.625,-1.44531 0.41666,-0.42966 0.89843,-0.64451 1.44531,-0.64453 m -1.75781,7.55859 3.55469,0 0,17.96875 -3.55469,0 0,-17.96875"
         id="path5912" />
      <path
         d="m 581.09375,457.07312 0,-3.82812 c 1.0026,0.70312 2.02474,1.27604 3.06641,1.71875 1.05468,0.42969 1.94009,0.64453 2.65625,0.64453 0.74218,0 1.3802,-0.18229 1.91406,-0.54688 0.53384,-0.36458 0.80077,-0.80078 0.80078,-1.30859 -10e-6,-0.52083 -0.17579,-0.95052 -0.52734,-1.28906 -0.33855,-0.35156 -1.08074,-0.85286 -2.22657,-1.50391 -2.29167,-1.27603 -3.79557,-2.36327 -4.51172,-3.26172 -0.70312,-0.91145 -1.05468,-1.90103 -1.05468,-2.96875 0,-1.38019 0.53385,-2.50649 1.60156,-3.37891 1.08072,-0.87237 2.46744,-1.30857 4.16016,-1.30859 1.7578,2e-5 3.56118,0.49481 5.41015,1.48438 l 0,3.51562 c -2.10938,-1.27603 -3.83464,-1.91405 -5.17578,-1.91406 -0.69011,10e-6 -1.25001,0.14975 -1.67969,0.44922 -0.41667,0.28647 -0.625,0.67058 -0.625,1.15234 0,0.41668 0.1888,0.81382 0.56641,1.19141 0.39062,0.37761 1.0677,0.83334 2.03125,1.36718 l 1.26953,0.72266 c 2.99478,1.69272 4.49217,3.56772 4.49219,5.625 -2e-5,1.47136 -0.57944,2.68229 -1.73828,3.63281 -1.14585,0.9375 -2.62371,1.40625 -4.4336,1.40625 -1.06771,0 -2.01823,-0.11067 -2.85156,-0.33203 -0.83334,-0.23437 -1.88151,-0.65755 -3.14453,-1.26953"
         id="path5914" />
      <path
         d="m 627.92969,431.07703 3.92578,0 0,15.48828 c -3e-5,2.09636 -0.15628,3.67839 -0.46875,4.74609 -0.29951,1.06772 -0.67711,1.95964 -1.13281,2.67578 -0.44274,0.70313 -0.98961,1.33464 -1.64063,1.89453 -2.16148,1.86198 -4.987,2.79297 -8.47656,2.79297 -3.5547,0 -6.40626,-0.92448 -8.55469,-2.77343 -0.65105,-0.57292 -1.20443,-1.21094 -1.66016,-1.91407 -0.44271,-0.71614 -0.8138,-1.58853 -1.11328,-2.61718 -0.28646,-1.02864 -0.42969,-2.64322 -0.42968,-4.84375 l 0,-15.44922 3.92578,0 0,15.48828 c -1e-5,2.56511 0.29296,4.34896 0.8789,5.35156 0.58593,1.00261 1.47786,1.8099 2.67578,2.42188 1.19791,0.59896 2.61067,0.89844 4.23829,0.89843 2.31769,10e-6 4.20571,-0.60546 5.66406,-1.8164 0.76821,-0.65104 1.32159,-1.41927 1.66015,-2.30469 0.33852,-0.88541 0.5078,-2.40234 0.50782,-4.55078 l 0,-15.48828"
         id="path5916" />
      <path
         d="m 637.42187,458.36218 0,-27.28515 6.83594,0 c 2.76041,2e-5 4.9479,0.68362 6.5625,2.05078 1.62759,1.36721 2.44139,3.21617 2.44141,5.54687 -2e-5,1.58856 -0.39716,2.96226 -1.19141,4.1211 -0.79429,1.15886 -1.93361,2.02475 -3.41797,2.59765 0.87238,0.57293 1.72525,1.35418 2.5586,2.34375 0.83331,0.9896 2.00519,2.71485 3.51562,5.17578 0.9505,1.54949 1.71222,2.71485 2.28516,3.4961 l 1.44531,1.95312 -4.64844,0 -1.1914,-1.79687 c -0.0391,-0.0651 -0.11721,-0.17578 -0.23438,-0.33203 l -0.76172,-1.07422 -1.21093,-1.99219 -1.3086,-2.12891 c -0.8073,-1.11978 -1.54949,-2.01171 -2.22656,-2.67578 -0.66407,-0.66405 -1.26954,-1.13931 -1.81641,-1.42578 -0.53386,-0.29947 -1.43881,-0.44921 -2.71484,-0.44922 l -1.01563,0 0,11.875 -3.90625,0 m 5.07813,-23.96484 -1.17188,0 0,8.61328 1.48438,0 c 1.97916,2e-5 3.33332,-0.16926 4.0625,-0.50781 0.74217,-0.33853 1.31509,-0.84634 1.71875,-1.52344 0.41665,-0.69009 0.62499,-1.47134 0.625,-2.34375 -10e-6,-0.85935 -0.22788,-1.63409 -0.68359,-2.32422 -0.45575,-0.7031 -1.10028,-1.19789 -1.9336,-1.48437 -0.82032,-0.28644 -2.18751,-0.42967 -4.10156,-0.42969"
         id="path5918" />
      <path
         d="m 661.48437,431.07703 3.90625,0 0,27.28515 -3.90625,0 0,-27.28515"
         id="path5920" />
    </g>
  </g>
</svg>
