<?xml version="1.0" encoding="UTF-8" standalone="no"?>
<!-- Created with Inkscape (http://www.inkscape.org/) -->

<svg
   xmlns:dc="http://purl.org/dc/elements/1.1/"
   xmlns:cc="http://creativecommons.org/ns#"
   xmlns:rdf="http://www.w3.org/1999/02/22-rdf-syntax-ns#"
   xmlns:svg="http://www.w3.org/2000/svg"
   xmlns="http://www.w3.org/2000/svg"
   xmlns:sodipodi="http://sodipodi.sourceforge.net/DTD/sodipodi-0.dtd"
   xmlns:inkscape="http://www.inkscape.org/namespaces/inkscape"
   width="25"
   height="25"
   id="svg2"
   version="1.1"
   inkscape:version="0.48.2 r9819"
   sodipodi:docname="toc.svg">
  <defs
     id="defs4" />
  <sodipodi:namedview
     id="base"
     pagecolor="#000000"
     bordercolor="#666666"
     borderopacity="1.0"
     inkscape:pageopacity="1"
     inkscape:pageshadow="2"
     inkscape:zoom="1"
     inkscape:cx="10.767477"
     inkscape:cy="13.01015"
     inkscape:document-units="px"
     inkscape:current-layer="layer1"
     showgrid="false"
     fit-margin-top="0"
     fit-margin-left="0"
     fit-margin-right="0"
     fit-margin-bottom="0"
     inkscape:window-width="1221"
     inkscape:window-height="916"
     inkscape:window-x="2419"
     inkscape:window-y="131"
     inkscape:window-maximized="0" />
  <metadata
     id="metadata7">
    <rdf:RDF>
      <cc:Work
         rdf:about="">
        <dc:format>image/svg+xml</dc:format>
        <dc:type
           rdf:resource="http://purl.org/dc/dcmitype/StillImage" />
        <dc:title />
      </cc:Work>
    </rdf:RDF>
  </metadata>
  <g
     inkscape:label="Layer 1"
     inkscape:groupmode="layer"
     id="layer1"
     transform="translate(-94.894358,-507.94632)">
    <path
       style="fill:#ffffff;fill-opacity:1;fill-rule:nonzero;stroke:#ffffff;stroke-width:2.49435091;stroke-linejoin:round;stroke-miterlimit:4;stroke-opacity:1;stroke-dasharray:none"
       d="m 99.49966,516.47789 c 1.7278,-0.006 3.45616,-10e-4 5.18195,0.0633 1.10122,0.0585 7.45232,0.34313 8.55661,0.31644"
       id="path3932"
       inkscape:connector-curvature="0"
       sodipodi:nodetypes="ccc" />
    <path
       style="fill:none;stroke:#ffffff;stroke-width:1.33565271;stroke-linejoin:round;stroke-miterlimit:4;stroke-opacity:1;stroke-dasharray:none"
       d="M 102.5 510 C 101.49886 510.08617 100.53104 510.65161 99.944552 511.46415 C 99.317128 512.34001 98.71939 513.24876 98.3125 514.25 C 98.00151 515.19842 97.766063 516.1729 97.571076 517.15015 C 97.442578 518.1337 97.343404 519.13178 97.487105 520.11938 C 97.672818 521.69609 97.724532 523.29419 98.09375 524.84375 C 98.561229 526.21676 99.043964 527.60567 99.823583 528.83726 C 100.30465 529.60124 101.23645 529.88562 102.075 530.05096 C 103.55437 530.24192 105.0462 530.32763 106.53125 530.46875 C 107.90755 530.4491 109.28189 530.53421 110.65625 530.59375 C 112.07144 530.41894 113.53914 530.25231 114.8125 529.5625 C 115.60746 529.10295 116.10627 528.32903 116.41351 527.48548 C 116.91169 526.2038 117.16363 524.84323 117.4375 523.5 C 117.61055 522.46668 117.64227 521.39572 117.31719 520.38907 C 116.96483 519.31236 116.6726 518.21435 116.30469 517.14376 C 115.89693 516.2169 115.59723 515.22145 115.00371 514.39181 C 114.34403 513.61205 113.64314 512.86879 112.88312 512.18533 C 112.16474 511.52464 111.22374 511.15755 110.30648 510.8623 C 108.96898 510.4344 107.5566 510.35192 106.17431 510.15276 C 104.95715 510.00256 103.72547 509.92012 102.5 510 z "
       id="path3935"
       inkscape:connector-curvature="0"
       sodipodi:nodetypes="csssscccccccccccccccccccssccscccccsccccsccccccccccccsscccscccccscscssccccsscccccccccsccscccccccccscccssscc" />
    <path
       sodipodi:nodetypes="ccc"
       inkscape:connector-curvature="0"
       id="path2984"
       d="m 100.45131,525.17256 c 1.7278,-0.006 3.45616,-10e-4 5.18195,0.0633 1.10122,0.0585 4.87853,-0.0678 5.98282,-0.0945"
       style="fill:#ffffff;fill-opacity:1;fill-rule:nonzero;stroke:#ffffff;stroke-width:2.49435091;stroke-linejoin:round;stroke-miterlimit:4;stroke-opacity:1;stroke-dasharray:none" />
    <path
       style="fill:#ffffff;fill-opacity:1;fill-rule:nonzero;stroke:#ffffff;stroke-width:2.49435091;stroke-linejoin:round;stroke-miterlimit:4;stroke-opacity:1;stroke-dasharray:none"
       d="m 99.564539,520.89011 c 1.091851,-0.006 2.184051,-0.001 3.274631,0.0633 0.69589,0.0585 3.08288,-0.0678 3.78072,-0.0945"
       id="path2986"
       inkscape:connector-curvature="0"
       sodipodi:nodetypes="ccc" />
  </g>
</svg>
